<svg xmlns="http://www.w3.org/2000/svg" width="215.18" height="90.487" viewBox="0 0 215.18 90.487">
  <g id="Group_19143" data-name="Group 19143" transform="translate(-119.275 -155.031)">
    <path id="Path_13114" data-name="Path 13114" d="M174.529,202.881h-8.822l-3.8-7.783H140.46l-3.862,7.783h-8.876l23.519-47.846Zm-30.149-15.8h13.6l-6.744-13.894Z" transform="translate(-7.534 0.001)" fill="#e6252a"/>
    <path id="Path_13115" data-name="Path 13115" d="M164.415,156.284h13.433a12.89,12.89,0,0,1,9.511,4.034,13.374,13.374,0,0,1,3.977,9.743,11.05,11.05,0,0,1-1.007,4.549,11.892,11.892,0,0,1-2.565,3.747,9.324,9.324,0,0,1,3.373,4.524,16.175,16.175,0,0,1,1.124,5.738,13.425,13.425,0,0,1-3.937,9.74,12.8,12.8,0,0,1-9.482,4.035H164.428Zm8.015,8.013V175.19h7.322a3.048,3.048,0,0,0,2.478-1.668,6.237,6.237,0,0,0,1.095-3.46,5.813,5.813,0,0,0-1.516-4.12,5.142,5.142,0,0,0-3.95-1.637h-5.435Zm0,18.906v11.184h6.4a5.041,5.041,0,0,0,3.891-1.668,5.842,5.842,0,0,0,1.516-4.095,7.078,7.078,0,0,0-1.062-3.6q-1.062-1.82-2.449-1.82h-8.295Z" transform="translate(6.554 0.48)" fill="#e6252a"/>
    <path id="Path_13116" data-name="Path 13116" d="M231.8,202.881h-8.823l-3.8-7.783H197.739l-3.862,7.783H185l23.522-47.846Zm-30.151-15.8h13.606l-6.744-13.894Z" transform="translate(14.46 0.001)" fill="#e6252a"/>
    <path id="Path_13117" data-name="Path 13117" d="M254.7,191.755l5.588,5.588a24.785,24.785,0,1,1,0-35.054l-5.588,5.588a16.492,16.492,0,0,0-11.928-4.885,16.833,16.833,0,0,0,0,33.667,16.493,16.493,0,0,0,11.932-4.9" transform="translate(27.121)" fill="#e6252a"/>
    <path id="Path_13118" data-name="Path 13118" d="M295.531,202.881h-8.821l-3.8-7.783H261.455l-3.862,7.783h-8.875l23.518-47.846Zm-30.15-15.8h13.6l-6.744-13.894Z" transform="translate(38.924 0.001)" fill="#e6252a"/>
    <text id="ERP_precision" data-name="ERP precision" transform="translate(119.275 235.518)" font-size="25" font-family="Bambino ☞" font-weight="700"><tspan x="0" y="0">PRECISION ERP</tspan></text>
  </g>
</svg>
